<svg width="114" height="90" viewBox="0 0 114 90" fill="none" xmlns="http://www.w3.org/2000/svg">
<path d="M110.395 52.5C111.359 52.5 112.193 52.8711 112.898 53.6133C113.602 54.3555 113.954 55.2344 113.954 56.25V63.75C113.954 64.7656 113.602 65.6445 112.898 66.3867C112.193 67.1289 111.359 67.5 110.395 67.5H106.836V82.5C106.836 84.6094 106.15 86.3867 104.779 87.832C103.407 89.2773 101.72 90 99.7181 90H7.18348C5.18153 90 3.4947 89.2773 2.12299 87.832C0.751283 86.3867 0.0654297 84.6094 0.0654297 82.5V7.5C0.0654297 5.39062 0.751283 3.61328 2.12299 2.16797C3.4947 0.722656 5.18153 0 7.18348 0H99.7181C101.646 0 103.314 0.742187 104.723 2.22656C106.132 3.71094 106.836 5.46875 106.836 7.5V22.5H110.395C111.359 22.5 112.193 22.8711 112.898 23.6133C113.602 24.3555 113.954 25.2344 113.954 26.25V33.75C113.954 34.7656 113.602 35.6445 112.898 36.3867C112.193 37.1289 111.359 37.5 110.395 37.5H106.836V52.5H110.395ZM85.482 15H78.3639V18.75C78.3639 19.7656 78.7161 20.6445 79.4205 21.3867C80.1249 22.1289 80.9591 22.5 81.923 22.5C82.8869 22.5 83.721 22.1289 84.4254 21.3867C85.1298 20.6445 85.482 19.7656 85.482 18.75V15ZM99.7181 18.75C99.7181 17.7344 99.3659 16.8555 98.6615 16.1133C97.9571 15.3711 97.123 15 96.1591 15H92.6V22.5C92.6 24.6094 91.9142 26.3867 90.5425 27.832C89.1708 29.2773 87.4839 30 85.482 30H78.3639C76.362 30 74.6752 29.2578 73.3035 27.7734C71.9318 26.2891 71.2459 24.5313 71.2459 22.5V15H10.7425C9.7786 15 8.94445 15.3711 8.24006 16.1133C7.53567 16.8555 7.18348 17.7344 7.18348 18.75V71.25C7.18348 72.2656 7.53567 73.1445 8.24006 73.8867C8.94445 74.6289 9.7786 75 10.7425 75H85.482V67.5H78.3639C76.362 67.5 74.6752 66.7773 73.3035 65.332C71.9318 63.8867 71.2459 62.1094 71.2459 60V45C71.2459 42.8906 71.9318 41.1133 73.3035 39.668C74.6752 38.2227 76.362 37.5 78.3639 37.5H85.482C87.4098 37.5 89.0781 38.2227 90.4869 39.668C91.8957 41.1133 92.6 42.8906 92.6 45V75H96.1591C97.123 75 97.9571 74.6289 98.6615 73.8867C99.3659 73.1445 99.7181 72.2656 99.7181 71.25V18.75ZM85.482 56.25V48.75C85.482 47.7344 85.1298 46.8555 84.4254 46.1133C83.721 45.3711 82.8869 45 81.923 45C80.9591 45 80.1249 45.3711 79.4205 46.1133C78.7161 46.8555 78.3639 47.7344 78.3639 48.75V56.25C78.3639 57.2656 78.7161 58.1445 79.4205 58.8867C80.1249 59.6289 80.9591 60 81.923 60C82.8869 60 83.721 59.6289 84.4254 58.8867C85.1298 58.1445 85.482 57.2656 85.482 56.25ZM60.5688 67.5C59.6049 67.5 58.7708 67.1289 58.0664 66.3867C57.362 65.6445 57.0098 64.7656 57.0098 63.75V52.5H49.8918C47.8898 52.5 46.203 51.7773 44.8313 50.332C43.4596 48.8867 42.7737 47.1094 42.7737 45V26.25C42.7737 25.2344 43.1259 24.3555 43.8303 23.6133C44.5347 22.8711 45.3688 22.5 46.3327 22.5C47.2966 22.5 48.1308 22.8711 48.8352 23.6133C49.5396 24.3555 49.8918 25.2344 49.8918 26.25V41.25C49.8918 42.2656 50.244 43.1445 50.9483 43.8867C51.6527 44.6289 52.4869 45 53.4508 45C54.4147 45 55.2488 44.6289 55.9532 43.8867C56.6576 43.1445 57.0098 42.2656 57.0098 41.25V26.25C57.0098 25.2344 57.362 24.3555 58.0664 23.6133C58.7708 22.8711 59.6049 22.5 60.5688 22.5C61.5327 22.5 62.3669 22.8711 63.0713 23.6133C63.7757 24.3555 64.1279 25.2344 64.1279 26.25V63.75C64.1279 64.7656 63.7757 65.6445 63.0713 66.3867C62.3669 67.1289 61.5327 67.5 60.5688 67.5ZM28.5376 67.5H21.4196C19.4176 67.5 17.7308 66.7773 16.3591 65.332C14.9874 63.8867 14.3015 62.1094 14.3015 60V30C14.3015 27.8906 14.9874 26.1133 16.3591 24.668C17.7308 23.2227 19.4176 22.5 21.4196 22.5H28.5376C30.5396 22.5 32.2264 23.2227 33.5981 24.668C34.9698 26.1133 35.6557 27.8906 35.6557 30V60C35.6557 62.1094 34.9698 63.8867 33.5981 65.332C32.2264 66.7773 30.5396 67.5 28.5376 67.5ZM28.5376 33.75C28.5376 32.7344 28.1854 31.8555 27.481 31.1133C26.7766 30.3711 25.9425 30 24.9786 30C24.0147 30 23.1805 30.3711 22.4762 31.1133C21.7718 31.8555 21.4196 32.7344 21.4196 33.75V56.25C21.4196 57.2656 21.7718 58.1445 22.4762 58.8867C23.1805 59.6289 24.0147 60 24.9786 60C25.9425 60 26.7766 59.6289 27.481 58.8867C28.1854 58.1445 28.5376 57.2656 28.5376 56.25V33.75Z" fill="#0FA958"/>
</svg>
