<svg width="135" height="134" viewBox="0 0 135 134" fill="none" xmlns="http://www.w3.org/2000/svg">
<path d="M112.5 22.3333H22.5C16.2563 22.3333 11.3062 27.3024 11.3062 33.4999L11.25 100.5C11.25 106.697 16.2563 111.667 22.5 111.667H112.5C118.744 111.667 123.75 106.697 123.75 100.5V33.4999C123.75 27.3024 118.744 22.3333 112.5 22.3333ZM67.5 55.8332H45V61.4166H61.875C64.9688 61.4166 67.5 63.9291 67.5 66.9999V83.7499C67.5 86.8207 64.9688 89.3332 61.875 89.3332H56.25V94.9166H45V89.3332H33.75V78.1666H56.25V72.5832H39.375C36.2813 72.5832 33.75 70.0707 33.75 66.9999V50.2499C33.75 47.1791 36.2813 44.6666 39.375 44.6666H45V39.0832H56.25V44.6666H67.5V55.8332ZM90 90.7291L78.75 79.5624H101.25L90 90.7291ZM78.75 55.8332L90 44.6666L101.25 55.8332H78.75Z" fill="#9747FF"/>
</svg>
